<svg xmlns="http://www.w3.org/2000/svg" width="656.9910888671875" height="353.9391174316406" viewBox="-144.8302459716797 -55.187076568603516 656.9910888671875 353.9391174316406"><title>Neo4j Graph Visualization</title><desc>Created using Neo4j (http://www.neo4j.com/)</desc><g class="layer relationships"><g class="relationship" transform="translate(353.4952161021672 221.00978117691815) rotate(223.51627298670797)"><path class="outline" fill="#A5ABB6" stroke="none" d="M 25 0.5 L 29.584313139826 0.5 L 29.584313139826 -0.5 L 25 -0.5 Z M 80.92025063982601 0.5 L 85.504563779652 0.5 L 85.504563779652 3.5 L 92.504563779652 0 L 85.504563779652 -3.5 L 85.504563779652 -0.5 L 80.92025063982601 -0.5 Z"/><text text-anchor="middle" pointer-events="none" font-size="8px" fill="#000000" x="55.252281889826" y="3" transform="rotate(180 55.252281889826 0)" font-family="sans-serif">INTERACTS</text></g><g class="relationship" transform="translate(372.26182690683584 67.15374106773444) rotate(504.9480653602584)"><path class="outline" fill="#A5ABB6" stroke="none" d="M 25 0.5 L 34.339479681961926 0.5 L 34.339479681961926 -0.5 L 25 -0.5 Z M 85.67541718196193 0.5 L 95.01489686392385 0.5 L 95.01489686392385 3.5 L 102.01489686392385 0 L 95.01489686392385 -3.5 L 95.01489686392385 -0.5 L 85.67541718196193 -0.5 Z"/><text text-anchor="middle" pointer-events="none" font-size="8px" fill="#000000" x="60.007448431961926" y="3" transform="rotate(180 60.007448431961926 0)" font-family="sans-serif">INTERACTS</text></g><g class="relationship" transform="translate(372.26182690683584 67.15374106773444) rotate(338.7373899546035)"><path class="outline" fill="#A5ABB6" stroke="none" d="M 25 0.5 L 30.331793441961402 0.5 L 30.331793441961402 -0.5 L 25 -0.5 Z M 81.6677309419614 0.5 L 86.9995243839228 0.5 L 86.9995243839228 3.5 L 93.9995243839228 0 L 86.9995243839228 -3.5 L 86.9995243839228 -0.5 L 81.6677309419614 -0.5 Z"/><text text-anchor="middle" pointer-events="none" font-size="8px" fill="#000000" x="55.9997621919614" y="3" font-family="sans-serif">INTERACTS</text></g><g class="relationship" transform="translate(17.22042722482209 130.14058531897686) rotate(328.60508746358863)"><path class="outline" fill="#A5ABB6" stroke="none" d="M 24.018736134675446,6.953439040707552 L 24.277555179777966,5.987513214418485 A 230.77907874587203 230.77907874587203 0 0 0 56.10300771358637,12.157872524404894 L 55.98209307778628,13.1505354333772 A 231.77907874587203 231.77907874587203 0 0 1 24.018736134675446,6.953439040707552 Z M 107.32077927762822,13.67567463037659 L 107.22019555180901,12.680746032888152 A 230.77907874587203 230.77907874587203 0 0 0 139.1652079289246,7.162689561452065 L 138.44818931192196,4.249635441997421 L 146.08183731048584,5.975155141688413 L 140.12123275159473,11.046761720724922 L 139.4042141345921,8.13370760127028 A 231.77907874587203 231.77907874587203 0 0 1 107.32077927762822,13.67567463037659"/><text text-anchor="middle" pointer-events="none" font-size="8px" fill="#000000" x="81.6419650581317" y="17.339021129224875" font-family="sans-serif">INTERACTS</text></g><g class="relationship" transform="translate(17.22042722482209 130.14058531897686) rotate(410.8137247447854)"><path class="outline" fill="#A5ABB6" stroke="none" d="M 25 0.5 L 27.677566602659027 0.5 L 27.677566602659027 -0.5 L 25 -0.5 Z M 71.01350410265903 0.5 L 73.69107070531805 0.5 L 73.69107070531805 3.5 L 80.69107070531805 0 L 73.69107070531805 -3.5 L 73.69107070531805 -0.5 L 71.01350410265903 -0.5 Z"/><text text-anchor="middle" pointer-events="none" font-size="8px" fill="#000000" x="49.34553535265903" y="3" font-family="sans-serif">INTERA…</text></g><g class="relationship" transform="translate(17.22042722482209 130.14058531897686) rotate(307.8555271141021)"><path class="outline" fill="#A5ABB6" stroke="none" d="M 25 0.5 L 66.91234318540116 0.5 L 66.91234318540116 -0.5 L 25 -0.5 Z M 118.24828068540116 0.5 L 160.1606238708023 0.5 L 160.1606238708023 3.5 L 167.1606238708023 0 L 160.1606238708023 -3.5 L 160.1606238708023 -0.5 L 118.24828068540116 -0.5 Z"/><text text-anchor="middle" pointer-events="none" font-size="8px" fill="#000000" x="92.58031193540116" y="3" font-family="sans-serif">INTERACTS</text></g><g class="relationship" transform="translate(17.22042722482209 130.14058531897686) rotate(362.2718506406545)"><path class="outline" fill="#A5ABB6" stroke="none" d="M 24.018736134675446,6.953439040707552 L 24.277555179777966,5.987513214418485 A 388.52889445230915 388.52889445230915 0 0 0 96.49837945393114,18.191507372904198 L 96.42544317148892,19.18884397541285 A 389.52889445230915 389.52889445230915 0 0 1 24.018736134675446,6.953439040707552 Z M 147.78880748894505,19.549498261113285 L 147.7298835549849,18.551235785605627 A 388.52889445230915 388.52889445230915 0 0 0 220.1149620349955,7.3626100567177115 L 219.37927366721547,4.4542148591021675 L 227.02383222406178,6.130736398166901 L 221.0958798587022,11.240470320205104 L 220.36019149092218,8.33207512258956 A 389.52889445230915 389.52889445230915 0 0 1 147.78880748894505,19.549498261113285"/><text text-anchor="middle" pointer-events="none" font-size="8px" fill="#000000" x="122.10468494123194" y="22.71672442203777" font-family="sans-serif">INTERACTS</text></g><g class="relationship" transform="translate(17.22042722482209 130.14058531897686) rotate(288.24934416640014)"><path class="outline" fill="#A5ABB6" stroke="none" d="M 25 0.5 L 33.237844393005886 0.5 L 33.237844393005886 -0.5 L 25 -0.5 Z M 84.57378189300589 0.5 L 92.81162628601177 0.5 L 92.81162628601177 3.5 L 99.81162628601177 0 L 92.81162628601177 -3.5 L 92.81162628601177 -0.5 L 84.57378189300589 -0.5 Z"/><text text-anchor="middle" pointer-events="none" font-size="8px" fill="#000000" x="58.905813143005886" y="3" font-family="sans-serif">INTERACTS</text></g><g class="relationship" transform="translate(17.22042722482209 130.14058531897686) rotate(248.3263348124829)"><path class="outline" fill="#A5ABB6" stroke="none" d="M 25 0.5 L 28.90542421281598 0.5 L 28.90542421281598 -0.5 L 25 -0.5 Z M 80.24136171281597 0.5 L 84.14678592563196 0.5 L 84.14678592563196 3.5 L 91.14678592563196 0 L 84.14678592563196 -3.5 L 84.14678592563196 -0.5 L 80.24136171281597 -0.5 Z"/><text text-anchor="middle" pointer-events="none" font-size="8px" fill="#000000" x="54.57339296281598" y="3" transform="rotate(180 54.57339296281598 0)" font-family="sans-serif">INTERACTS</text></g><g class="relationship" transform="translate(17.22042722482209 130.14058531897686) rotate(267.2653607773788)"><path class="outline" fill="#A5ABB6" stroke="none" d="M 25 0.5 L 49.08497562436794 0.5 L 49.08497562436794 -0.5 L 25 -0.5 Z M 100.42091312436794 0.5 L 124.50588874873588 0.5 L 124.50588874873588 3.5 L 131.50588874873588 0 L 124.50588874873588 -3.5 L 124.50588874873588 -0.5 L 100.42091312436794 -0.5 Z"/><text text-anchor="middle" pointer-events="none" font-size="8px" fill="#000000" x="74.75294437436794" y="3" transform="rotate(180 74.75294437436794 0)" font-family="sans-serif">INTERACTS</text></g><g class="relationship" transform="translate(17.22042722482209 130.14058531897686) rotate(200.53699979339672)"><path class="outline" fill="#A5ABB6" stroke="none" d="M 25 0.5 L 36.062326886103264 0.5 L 36.062326886103264 -0.5 L 25 -0.5 Z M 87.39826438610326 0.5 L 98.46059127220653 0.5 L 98.46059127220653 3.5 L 105.46059127220653 0 L 98.46059127220653 -3.5 L 98.46059127220653 -0.5 L 87.39826438610326 -0.5 Z"/><text text-anchor="middle" pointer-events="none" font-size="8px" fill="#000000" x="61.730295636103264" y="3" transform="rotate(180 61.730295636103264 0)" font-family="sans-serif">INTERACTS</text></g><g class="relationship" transform="translate(17.22042722482209 130.14058531897686) rotate(225.13827817224973)"><path class="outline" fill="#A5ABB6" stroke="none" d="M 25 0.5 L 43.61584973476674 0.5 L 43.61584973476674 -0.5 L 25 -0.5 Z M 94.95178723476674 0.5 L 113.56763696953348 0.5 L 113.56763696953348 3.5 L 120.56763696953348 0 L 113.56763696953348 -3.5 L 113.56763696953348 -0.5 L 94.95178723476674 -0.5 Z"/><text text-anchor="middle" pointer-events="none" font-size="8px" fill="#000000" x="69.28381848476674" y="3" transform="rotate(180 69.28381848476674 0)" font-family="sans-serif">INTERACTS</text></g><g class="relationship" transform="translate(17.22042722482209 130.14058531897686) rotate(534.3183196110352)"><path class="outline" fill="#A5ABB6" stroke="none" d="M 25 0.5 L 37.68580044778069 0.5 L 37.68580044778069 -0.5 L 25 -0.5 Z M 89.0217379477807 0.5 L 101.70753839556139 0.5 L 101.70753839556139 3.5 L 108.70753839556139 0 L 101.70753839556139 -3.5 L 101.70753839556139 -0.5 L 89.0217379477807 -0.5 Z"/><text text-anchor="middle" pointer-events="none" font-size="8px" fill="#000000" x="63.35376919778069" y="3" transform="rotate(180 63.35376919778069 0)" font-family="sans-serif">INTERACTS</text></g><g class="relationship" transform="translate(17.22042722482209 130.14058531897686) rotate(507.6475201563636)"><path class="outline" fill="#A5ABB6" stroke="none" d="M 25 0.5 L 36.546263553748716 0.5 L 36.546263553748716 -0.5 L 25 -0.5 Z M 87.88220105374872 0.5 L 99.42846460749743 0.5 L 99.42846460749743 3.5 L 106.42846460749743 0 L 99.42846460749743 -3.5 L 99.42846460749743 -0.5 L 87.88220105374872 -0.5 Z"/><text text-anchor="middle" pointer-events="none" font-size="8px" fill="#000000" x="62.214232303748716" y="3" transform="rotate(180 62.214232303748716 0)" font-family="sans-serif">INTERACTS</text></g><g class="relationship" transform="translate(17.22042722482209 130.14058531897686) rotate(481.7231952381005)"><path class="outline" fill="#A5ABB6" stroke="none" d="M 25 0.5 L 39.10537952108639 0.5 L 39.10537952108639 -0.5 L 25 -0.5 Z M 90.44131702108639 0.5 L 104.54669654217278 0.5 L 104.54669654217278 3.5 L 111.54669654217278 0 L 104.54669654217278 -3.5 L 104.54669654217278 -0.5 L 90.44131702108639 -0.5 Z"/><text text-anchor="middle" pointer-events="none" font-size="8px" fill="#000000" x="64.77334827108639" y="3" transform="rotate(180 64.77334827108639 0)" font-family="sans-serif">INTERACTS</text></g><g class="relationship" transform="translate(17.22042722482209 130.14058531897686) rotate(362.2718506406545)"><path class="outline" fill="#A5ABB6" stroke="none" d="M 24.018736134675446,-6.953439040707552 L 24.277555179777966,-5.987513214418485 A 388.52889445230915 388.52889445230915 0 0 1 96.49837945393097,-18.191507372904198 L 96.42544317148877,-19.18884397541285 A 389.52889445230915 389.52889445230915 0 0 0 24.018736134675446,-6.953439040707552 Z M 147.78880748894497,-19.549498261113285 L 147.7298835549848,-18.551235785605627 A 388.52889445230915 388.52889445230915 0 0 1 220.1149620349955,-7.3626100567177115 L 219.37927366721547,-4.4542148591021675 L 227.02383222406178,-6.130736398166901 L 221.0958798587022,-11.240470320205104 L 220.36019149092218,-8.33207512258956 A 389.52889445230915 389.52889445230915 0 0 0 147.78880748894497,-19.549498261113285"/><text text-anchor="middle" pointer-events="none" font-size="8px" fill="#000000" x="122.10468494123181" y="-16.71672442203777" font-family="sans-serif">INTERACTS</text></g><g class="relationship" transform="translate(17.22042722482209 130.14058531897686) rotate(328.60508746358863)"><path class="outline" fill="#A5ABB6" stroke="none" d="M 24.018736134675446,-6.953439040707552 L 24.277555179777966,-5.987513214418485 A 230.77907874587203 230.77907874587203 0 0 1 56.10300771358638,-12.157872524404894 L 55.98209307778629,-13.1505354333772 A 231.77907874587203 231.77907874587203 0 0 0 24.018736134675446,-6.953439040707552 Z M 107.32077927762816,-13.67567463037659 L 107.22019555180896,-12.680746032888152 A 230.77907874587203 230.77907874587203 0 0 1 139.1652079289246,-7.162689561452065 L 138.44818931192196,-4.249635441997421 L 146.08183731048584,-5.975155141688413 L 140.12123275159473,-11.046761720724922 L 139.4042141345921,-8.13370760127028 A 231.77907874587203 231.77907874587203 0 0 0 107.32077927762816,-13.67567463037659"/><text text-anchor="middle" pointer-events="none" font-size="8px" fill="#000000" x="81.64196505813167" y="-11.339021129224875" font-family="sans-serif">INTERACTS</text></g><g class="relationship" transform="translate(17.22042722482209 130.14058531897686) rotate(455.4712379898683)"><path class="outline" fill="#A5ABB6" stroke="none" d="M 25 0.5 L 37.36337088457664 0.5 L 37.36337088457664 -0.5 L 25 -0.5 Z M 88.69930838457664 0.5 L 101.06267926915328 0.5 L 101.06267926915328 3.5 L 108.06267926915328 0 L 101.06267926915328 -3.5 L 101.06267926915328 -0.5 L 88.69930838457664 -0.5 Z"/><text text-anchor="middle" pointer-events="none" font-size="8px" fill="#000000" x="63.03133963457664" y="3" transform="rotate(180 63.03133963457664 0)" font-family="sans-serif">INTERACTS</text></g><g class="relationship" transform="translate(17.22042722482209 130.14058531897686) rotate(430.17741189612093)"><path class="outline" fill="#A5ABB6" stroke="none" d="M 25 0.5 L 45.034460518947284 0.5 L 45.034460518947284 -0.5 L 25 -0.5 Z M 96.37039801894728 0.5 L 116.40485853789457 0.5 L 116.40485853789457 3.5 L 123.40485853789457 0 L 116.40485853789457 -3.5 L 116.40485853789457 -0.5 L 96.37039801894728 -0.5 Z"/><text text-anchor="middle" pointer-events="none" font-size="8px" fill="#000000" x="70.70242926894728" y="3" font-family="sans-serif">INTERACTS</text></g><g class="relationship" transform="translate(17.22042722482209 130.14058531897686) rotate(389.4325131907324)"><path class="outline" fill="#A5ABB6" stroke="none" d="M 25 0.5 L 42.977003138627396 0.5 L 42.977003138627396 -0.5 L 25 -0.5 Z M 94.3129406386274 0.5 L 112.28994377725479 0.5 L 112.28994377725479 3.5 L 119.28994377725479 0 L 112.28994377725479 -3.5 L 112.28994377725479 -0.5 L 94.3129406386274 -0.5 Z"/><text text-anchor="middle" pointer-events="none" font-size="8px" fill="#000000" x="68.6449718886274" y="3" font-family="sans-serif">INTERACTS</text></g></g><g class="layer nodes"><g class="node" transform="translate(353.4952161021672,221.00978117691815)"><circle class="outline" cx="0" cy="0" r="25" fill="#F79767" stroke="#f36924" stroke-width="2px"/><text text-anchor="middle" pointer-events="none" font-family="sans-serif" dy="1.5625" font-size="25" fill="#FFFFFF"/><text text-anchor="middle" pointer-events="none" font-family="sans-serif" dy="1.5625" font-size="25" fill="#FFFFFF"/><text text-anchor="middle" pointer-events="none" font-family="sans-serif" dy="1.5625" font-size="25" fill="#FFFFFF"/><text text-anchor="middle" pointer-events="none" y="-5" font-size="10px" fill="#FFFFFF" font-family="sans-serif"> Gunthor</text><text text-anchor="middle" pointer-events="none" y="5" font-size="10px" fill="#FFFFFF" font-family="sans-serif"> son of</text><text text-anchor="middle" pointer-events="none" y="15" font-size="10px" fill="#FFFFFF" font-family="sans-serif"> Gurn</text></g><g class="node" transform="translate(268.28339317225294,140.10077214821206)"><circle class="outline" cx="0" cy="0" r="25" fill="#57C7E3" stroke="#23b3d7" stroke-width="2px"/><text text-anchor="middle" pointer-events="none" font-family="sans-serif" dy="1.5625" font-size="25" fill="#2A2C34"/><text text-anchor="middle" pointer-events="none" font-family="sans-serif" dy="1.5625" font-size="25" fill="#2A2C34"/><text text-anchor="middle" pointer-events="none" y="0" font-size="10px" fill="#2A2C34" font-family="sans-serif"> Tyrion</text><text text-anchor="middle" pointer-events="none" y="10" font-size="10px" fill="#2A2C34" font-family="sans-serif"> Lannister</text></g><g class="node" transform="translate(372.26182690683584,67.15374106773444)"><circle class="outline" cx="0" cy="0" r="25" fill="#F79767" stroke="#f36924" stroke-width="2px"/><text text-anchor="middle" pointer-events="none" font-family="sans-serif" dy="1.5625" font-size="25" fill="#FFFFFF"/><text text-anchor="middle" pointer-events="none" font-family="sans-serif" dy="1.5625" font-size="25" fill="#FFFFFF"/><text text-anchor="middle" pointer-events="none" font-family="sans-serif" dy="1.5625" font-size="25" fill="#FFFFFF"/><text text-anchor="middle" pointer-events="none" y="-5" font-size="10px" fill="#FFFFFF" font-family="sans-serif"> High</text><text text-anchor="middle" pointer-events="none" y="5" font-size="10px" fill="#FFFFFF" font-family="sans-serif"> Septon</text><text text-anchor="middle" pointer-events="none" y="15" font-size="10px" fill="#FFFFFF" font-family="sans-serif"> (fat_o…</text></g><g class="node" transform="translate(483.160825053462,23.999378441524343)"><circle class="outline" cx="0" cy="0" r="25" fill="#F16667" stroke="#eb2728" stroke-width="2px"/><text text-anchor="middle" pointer-events="none" font-family="sans-serif" dy="1.5625" font-size="25" fill="#FFFFFF"/><text text-anchor="middle" pointer-events="none" font-family="sans-serif" dy="1.5625" font-size="25" fill="#FFFFFF"/><text text-anchor="middle" pointer-events="none" y="0" font-size="10px" fill="#FFFFFF" font-family="sans-serif"> Joffrey</text><text text-anchor="middle" pointer-events="none" y="10" font-size="10px" fill="#FFFFFF" font-family="sans-serif"> Barathe…</text></g><g class="node" transform="translate(17.22042722482209,130.14058531897686)"><circle class="outline" cx="0" cy="0" r="25" fill="#D9C8AE" stroke="#c0a378" stroke-width="2px"/><text text-anchor="middle" pointer-events="none" font-family="sans-serif" dy="1.5625" font-size="25" fill="#2A2C34"/><text text-anchor="middle" pointer-events="none" font-family="sans-serif" dy="1.5625" font-size="25" fill="#2A2C34"/><text text-anchor="middle" pointer-events="none" y="0" font-size="10px" fill="#2A2C34" font-family="sans-serif"> Jaime</text><text text-anchor="middle" pointer-events="none" y="10" font-size="10px" fill="#2A2C34" font-family="sans-serif"> Lannister</text></g><g class="node" transform="translate(162.63690697620098,41.395708871542595)"><circle class="outline" cx="0" cy="0" r="25" fill="#F79767" stroke="#f36924" stroke-width="2px"/><text text-anchor="middle" pointer-events="none" font-family="sans-serif" dy="1.5625" font-size="25" fill="#FFFFFF"/><text text-anchor="middle" pointer-events="none" font-family="sans-serif" dy="1.5625" font-size="25" fill="#FFFFFF"/><text text-anchor="middle" pointer-events="none" y="0" font-size="10px" fill="#FFFFFF" font-family="sans-serif"> Josmyn</text><text text-anchor="middle" pointer-events="none" y="10" font-size="10px" fill="#FFFFFF" font-family="sans-serif"> Peckled…</text></g><g class="node" transform="translate(84.00065940677973,212.0612970868831)"><circle class="outline" cx="0" cy="0" r="25" fill="#F79767" stroke="#f36924" stroke-width="2px"/><text text-anchor="middle" pointer-events="none" font-family="sans-serif" dy="1.5625" font-size="25" fill="#FFFFFF"/><text text-anchor="middle" pointer-events="none" font-family="sans-serif" dy="1.5625" font-size="25" fill="#FFFFFF"/><text text-anchor="middle" pointer-events="none" y="0" font-size="10px" fill="#FFFFFF" font-family="sans-serif"> Jonos</text><text text-anchor="middle" pointer-events="none" y="10" font-size="10px" fill="#FFFFFF" font-family="sans-serif"> Bracken</text></g><g class="node" transform="translate(135.14412332616976,-21.581882576232914)"><circle class="outline" cx="0" cy="0" r="25" fill="#F79767" stroke="#f36924" stroke-width="2px"/><text text-anchor="middle" pointer-events="none" font-family="sans-serif" dy="1.5625" font-size="25" fill="#FFFFFF"/><text text-anchor="middle" pointer-events="none" font-family="sans-serif" dy="1.5625" font-size="25" fill="#FFFFFF"/><text text-anchor="middle" pointer-events="none" y="0" font-size="10px" fill="#FFFFFF" font-family="sans-serif"> Tytos</text><text text-anchor="middle" pointer-events="none" y="10" font-size="10px" fill="#FFFFFF" font-family="sans-serif"> Blackw…</text></g><g class="node" transform="translate(56.30555441505058,11.606645501375567)"><circle class="outline" cx="0" cy="0" r="25" fill="#D9C8AE" stroke="#c0a378" stroke-width="2px"/><text text-anchor="middle" pointer-events="none" font-family="sans-serif" dy="1.5625" font-size="25" fill="#2A2C34"/><text text-anchor="middle" pointer-events="none" font-family="sans-serif" dy="1.5625" font-size="25" fill="#2A2C34"/><text text-anchor="middle" pointer-events="none" y="0" font-size="10px" fill="#2A2C34" font-family="sans-serif"> Kevan</text><text text-anchor="middle" pointer-events="none" y="10" font-size="10px" fill="#2A2C34" font-family="sans-serif"> Lannister</text></g><g class="node" transform="translate(-25.67486447069602,22.205096108008846)"><circle class="outline" cx="0" cy="0" r="25" fill="#F16667" stroke="#eb2728" stroke-width="2px"/><text text-anchor="middle" pointer-events="none" font-family="sans-serif" dy="1.5625" font-size="25" fill="#FFFFFF"/><text text-anchor="middle" pointer-events="none" font-family="sans-serif" dy="1.5625" font-size="25" fill="#FFFFFF"/><text text-anchor="middle" pointer-events="none" y="0" font-size="10px" fill="#FFFFFF" font-family="sans-serif"> Robert</text><text text-anchor="middle" pointer-events="none" y="10" font-size="10px" fill="#FFFFFF" font-family="sans-serif"> Barathe…</text></g><g class="node" transform="translate(9.753478154124043,-26.187076611365143)"><circle class="outline" cx="0" cy="0" r="25" fill="#F16667" stroke="#eb2728" stroke-width="2px"/><text text-anchor="middle" pointer-events="none" font-family="sans-serif" dy="1.5625" font-size="25" fill="#FFFFFF"/><text text-anchor="middle" pointer-events="none" font-family="sans-serif" dy="1.5625" font-size="25" fill="#FFFFFF"/><text text-anchor="middle" pointer-events="none" y="0" font-size="10px" fill="#FFFFFF" font-family="sans-serif"> Vargo</text><text text-anchor="middle" pointer-events="none" y="10" font-size="10px" fill="#FFFFFF" font-family="sans-serif"> Hoat</text></g><g class="node" transform="translate(-104.9488509078203,84.37342071767354)"><circle class="outline" cx="0" cy="0" r="25" fill="#F79767" stroke="#f36924" stroke-width="2px"/><text text-anchor="middle" pointer-events="none" font-family="sans-serif" dy="1.5625" font-size="25" fill="#FFFFFF"/><text text-anchor="middle" pointer-events="none" y="5" font-size="10px" fill="#FFFFFF" font-family="sans-serif"> Joy Hill</text></g><g class="node" transform="translate(-85.46271974813665,26.960605377984198)"><circle class="outline" cx="0" cy="0" r="25" fill="#D9C8AE" stroke="#c0a378" stroke-width="2px"/><text text-anchor="middle" pointer-events="none" font-family="sans-serif" dy="1.5625" font-size="25" fill="#2A2C34"/><text text-anchor="middle" pointer-events="none" font-family="sans-serif" dy="1.5625" font-size="25" fill="#2A2C34"/><text text-anchor="middle" pointer-events="none" y="0" font-size="10px" fill="#2A2C34" font-family="sans-serif"> Wylis</text><text text-anchor="middle" pointer-events="none" y="10" font-size="10px" fill="#2A2C34" font-family="sans-serif"> Manderly</text></g><g class="node" transform="translate(-115.83024285082142,143.37784395597512)"><circle class="outline" cx="0" cy="0" r="25" fill="#D9C8AE" stroke="#c0a378" stroke-width="2px"/><text text-anchor="middle" pointer-events="none" font-family="sans-serif" dy="1.5625" font-size="25" fill="#2A2C34"/><text text-anchor="middle" pointer-events="none" font-family="sans-serif" dy="1.5625" font-size="25" fill="#2A2C34"/><text text-anchor="middle" pointer-events="none" y="0" font-size="10px" fill="#2A2C34" font-family="sans-serif"> Ronnet</text><text text-anchor="middle" pointer-events="none" y="10" font-size="10px" fill="#2A2C34" font-family="sans-serif"> Connin…</text></g><g class="node" transform="translate(-93.80666503964451,200.47141847472602)"><circle class="outline" cx="0" cy="0" r="25" fill="#F79767" stroke="#f36924" stroke-width="2px"/><text text-anchor="middle" pointer-events="none" font-family="sans-serif" dy="1.5625" font-size="25" fill="#FFFFFF"/><text text-anchor="middle" pointer-events="none" y="5" font-size="10px" fill="#FFFFFF" font-family="sans-serif"> Shadrich</text></g><g class="node" transform="translate(-54.57801666120751,246.28697481139665)"><circle class="outline" cx="0" cy="0" r="25" fill="#F79767" stroke="#f36924" stroke-width="2px"/><text text-anchor="middle" pointer-events="none" font-family="sans-serif" dy="1.5625" font-size="25" fill="#FFFFFF"/><text text-anchor="middle" pointer-events="none" font-family="sans-serif" dy="1.5625" font-size="25" fill="#FFFFFF"/><text text-anchor="middle" pointer-events="none" y="0" font-size="10px" fill="#FFFFFF" font-family="sans-serif"> Mace</text><text text-anchor="middle" pointer-events="none" y="10" font-size="10px" fill="#FFFFFF" font-family="sans-serif"> Tyrell</text></g><g class="node" transform="translate(4.533425055516868,262.5970558677636)"><circle class="outline" cx="0" cy="0" r="25" fill="#F16667" stroke="#eb2728" stroke-width="2px"/><text text-anchor="middle" pointer-events="none" font-family="sans-serif" dy="1.5625" font-size="25" fill="#FFFFFF"/><text text-anchor="middle" pointer-events="none" y="5" font-size="10px" fill="#FFFFFF" font-family="sans-serif"> Pycelle</text></g><g class="node" transform="translate(67.54582423806461,269.75203346386223)"><circle class="outline" cx="0" cy="0" r="25" fill="#D9C8AE" stroke="#c0a378" stroke-width="2px"/><text text-anchor="middle" pointer-events="none" font-family="sans-serif" dy="1.5625" font-size="25" fill="#2A2C34"/><text text-anchor="middle" pointer-events="none" font-family="sans-serif" dy="1.5625" font-size="25" fill="#2A2C34"/><text text-anchor="middle" pointer-events="none" y="0" font-size="10px" fill="#2A2C34" font-family="sans-serif"> Lyle</text><text text-anchor="middle" pointer-events="none" y="10" font-size="10px" fill="#2A2C34" font-family="sans-serif"> Crakehall</text></g><g class="node" transform="translate(142.88760405762213,201.04438311653576)"><circle class="outline" cx="0" cy="0" r="25" fill="#F16667" stroke="#eb2728" stroke-width="2px"/><text text-anchor="middle" pointer-events="none" font-family="sans-serif" dy="1.5625" font-size="25" fill="#FFFFFF"/><text text-anchor="middle" pointer-events="none" font-family="sans-serif" dy="1.5625" font-size="25" fill="#FFFFFF"/><text text-anchor="middle" pointer-events="none" y="0" font-size="10px" fill="#FFFFFF" font-family="sans-serif"> Rhaegar</text><text text-anchor="middle" pointer-events="none" y="10" font-size="10px" fill="#FFFFFF" font-family="sans-serif"> Targary…</text></g></g></svg>