<svg xmlns="http://www.w3.org/2000/svg" width="675.25732421875" height="370.89849853515625" viewBox="-192.03646850585938 -25.628232955932617 675.25732421875 370.89849853515625"><title>Neo4j Graph Visualization</title><desc>Created using Neo4j (http://www.neo4j.com/)</desc><g class="layer relationships"><g class="relationship" transform="translate(383.8964169296681 130.1783104298437) rotate(183.09642408877164)"><path class="outline" fill="#A5ABB6" stroke="none" d="M 17.324116139070416,18.03122292025696 L 18.031222920256962,17.324116139070412 A 250.93996716310002 250.93996716310002 0 0 0 140.26661582893541,84.67485741328596 L 140.04661914938217,85.65035803398567 A 251.93996716310002 251.93996716310002 0 0 1 17.324116139070416,18.03122292025696 Z M 244.75250189199159,86.95610481567002 L 244.55690003066377,85.97542142545424 A 250.93996716310002 250.93996716310002 0 0 0 368.4338288421635,21.69385223213219 L 366.3660683085328,19.52029147255836 L 373.85009737010756,17.231337780256133 L 371.19084288700446,24.5919332448973 L 369.1230823533738,22.41837248532347 A 251.93996716310002 251.93996716310002 0 0 1 244.75250189199159,86.95610481567002"/><text text-anchor="middle" pointer-events="none" font-size="8px" fill="#000000" x="192.33720806522877" y="94.30318163070967" transform="rotate(180 192.33720806522877 91.30318163070967)" font-family="sans-serif">ATTACKER_COMMANDER</text></g><g class="relationship" transform="translate(187.32989882954473 117.41926999834574) rotate(182.47276499901682)"><path class="outline" fill="#A5ABB6" stroke="none" d="M 24.018736134675446,6.953439040707552 L 24.277555179777966,5.987513214418485 A 278.968488437974 278.968488437974 0 0 0 69.06214531253882,14.142518779622662 L 68.96386264336724,15.137677318218664 A 279.968488437974 279.968488437974 0 0 1 24.018736134675446,6.953439040707552 Z M 118.98842076546416,15.586863654747845 L 118.90802418969216,14.590100698672472 A 278.968488437974 278.968488437974 0 0 0 163.83183405337604,7.240615243250209 L 163.1075380428175,4.329362027006557 L 170.745474226371,6.035800087987614 L 164.79756206745407,11.122286198241747 L 164.07326605689553,8.211032981998095 A 279.968488437974 279.968488437974 0 0 1 118.98842076546416,15.586863654747845"/><text text-anchor="middle" pointer-events="none" font-size="8px" fill="#000000" x="93.97057814120043" y="18.981868120681384" transform="rotate(180 93.97057814120043 15.981868120681384)" font-family="sans-serif">DEFENDER</text></g><g class="relationship" transform="translate(383.8964169296681 130.1783104298437) rotate(212.64647709469654)"><path class="outline" fill="#A5ABB6" stroke="none" d="M 6.953439040707552 24.018736134675446 L 17.306200844808384 62.65576918623819 A 17.916697508022974 17.916697508022974 0 1 1 -17.306200844808384 62.65576918623819 L -8.765172356425198 30.780216918698923 L -4.901469051268926 31.815493099109005 L -6.4704761275630185 24.148145657226706 L -11.662949835292403 30.00375978339136 L -7.79924653013613 31.039035963801442 L -16.340275018519314 62.91458823134071 A 16.916697508022974 16.916697508022974 0 1 0 16.340275018519314 62.91458823134071 L 5.987513214418485 24.277555179777966 Z"/><text text-anchor="middle" pointer-events="none" font-size="8px" fill="#000000" x="0" y="94.20964923467838" transform="rotate(180 0 91.20964923467838)" font-family="sans-serif">RELATED…</text></g><g class="relationship" transform="translate(383.8964169296681 130.1783104298437) rotate(279.04568994880185)"><path class="outline" fill="#A5ABB6" stroke="none" d="M 24.018736134675446,-6.953439040707552 L 24.277555179777966,-5.987513214418485 A 142.42930507460972 142.42930507460972 0 0 1 40.54642164473442,-9.343875717145977 L 40.40182675073925,-10.333366655270481 A 143.42930507460972 143.42930507460972 0 0 0 24.018736134675446,-6.953439040707552 Z M 77.98382081597637,-10.84831645900374 L 77.86639119520669,-9.855235251767454 A 142.42930507460972 142.42930507460972 0 0 1 94.221110713966,-6.9458822709462975 L 93.52434106850224,-4.027918586943308 L 101.14582091755027,-5.806413712198017 L 95.15013690791768,-10.836500516283618 L 94.45336726245392,-7.918536832280628 A 143.42930507460972 143.42930507460972 0 0 0 77.98382081597637,-10.84831645900374"/><text text-anchor="middle" pointer-events="none" font-size="8px" fill="#000000" x="59.182733368410126" y="-8.32725880000308" font-family="sans-serif">DIED_IN</text></g><g class="relationship" transform="translate(383.8964169296681 130.1783104298437) rotate(183.09642408877164)"><path class="outline" fill="#A5ABB6" stroke="none" d="M 24.018736134675446,6.953439040707552 L 24.277555179777966,5.987513214418485 A 661.4467653430362 661.4467653430362 0 0 0 138.68522316176586,26.083567373829965 L 138.59936991523767,27.07987516766707 A 662.4467653430362 662.4467653430362 0 0 1 24.018736134675446,6.953439040707552 Z M 246.3457040086065,27.569455270624644 L 246.26890820961088,26.5724084285672 A 661.4467653430362 661.4467653430362 0 0 0 360.8544740890591,7.516858634838989 L 360.1043824382309,4.612144790867812 L 367.7571550001299,6.2507637569017005 L 361.8545962901634,11.389810426800558 L 361.1045046393352,8.485096582829382 A 662.4467653430362 662.4467653430362 0 0 1 246.3457040086065,27.569455270624644"/><text text-anchor="middle" pointer-events="none" font-size="8px" fill="#000000" x="192.46483851654807" y="32.01893192291618" transform="rotate(180 192.46483851654807 29.01893192291618)" font-family="sans-serif">DEFENDER_COMMANDER</text></g><g class="relationship" transform="translate(383.8964169296681 130.1783104298437) rotate(236.24726424059122)"><path class="outline" fill="#A5ABB6" stroke="none" d="M 6.953439040707552 24.018736134675446 L 17.306200844808384 62.65576918623819 A 17.916697508022974 17.916697508022974 0 1 1 -17.306200844808384 62.65576918623819 L -8.765172356425198 30.780216918698923 L -4.901469051268926 31.815493099109005 L -6.4704761275630185 24.148145657226706 L -11.662949835292403 30.00375978339136 L -7.79924653013613 31.039035963801442 L -16.340275018519314 62.91458823134071 A 16.916697508022974 16.916697508022974 0 1 0 16.340275018519314 62.91458823134071 L 5.987513214418485 24.277555179777966 Z"/><text text-anchor="middle" pointer-events="none" font-size="8px" fill="#000000" x="0" y="94.20964923467838" transform="rotate(180 0 91.20964923467838)" font-family="sans-serif">INTERAC…</text></g><g class="relationship" transform="translate(383.8964169296681 130.1783104298437) rotate(236.09494909960176)"><path class="outline" fill="#A5ABB6" stroke="none" d="M 25 0.5 L 44.2542071187864 0.5 L 44.2542071187864 -0.5 L 25 -0.5 Z M 101.5315508687864 0.5 L 120.7857579875728 0.5 L 120.7857579875728 3.5 L 127.7857579875728 0 L 120.7857579875728 -3.5 L 120.7857579875728 -0.5 L 101.5315508687864 -0.5 Z"/><text text-anchor="middle" pointer-events="none" font-size="8px" fill="#000000" x="72.8928789937864" y="3" transform="rotate(180 72.8928789937864 0)" font-family="sans-serif">HAS_STATUS</text></g><g class="relationship" transform="translate(383.8964169296681 130.1783104298437) rotate(259.84805138648596)"><path class="outline" fill="#A5ABB6" stroke="none" d="M 6.953439040707552 24.018736134675446 L 17.306200844808384 62.65576918623819 A 17.916697508022974 17.916697508022974 0 1 1 -17.306200844808384 62.65576918623819 L -8.765172356425198 30.780216918698923 L -4.901469051268926 31.815493099109005 L -6.4704761275630185 24.148145657226706 L -11.662949835292403 30.00375978339136 L -7.79924653013613 31.039035963801442 L -16.340275018519314 62.91458823134071 A 16.916697508022974 16.916697508022974 0 1 0 16.340275018519314 62.91458823134071 L 5.987513214418485 24.277555179777966 Z"/><text text-anchor="middle" pointer-events="none" font-size="8px" fill="#000000" x="0" y="94.20964923467838" transform="rotate(180 0 91.20964923467838)" font-family="sans-serif">INTERAC…</text></g><g class="relationship" transform="translate(383.8964169296681 130.1783104298437) rotate(283.4488385323806)"><path class="outline" fill="#A5ABB6" stroke="none" d="M 6.953439040707552 24.018736134675446 L 17.306200844808384 62.65576918623819 A 17.916697508022974 17.916697508022974 0 1 1 -17.306200844808384 62.65576918623819 L -8.765172356425198 30.780216918698923 L -4.901469051268926 31.815493099109005 L -6.4704761275630185 24.148145657226706 L -11.662949835292403 30.00375978339136 L -7.79924653013613 31.039035963801442 L -16.340275018519314 62.91458823134071 A 16.916697508022974 16.916697508022974 0 1 0 16.340275018519314 62.91458823134071 L 5.987513214418485 24.277555179777966 Z"/><text text-anchor="middle" pointer-events="none" font-size="8px" fill="#000000" x="0" y="94.20964923467838" font-family="sans-serif">INTERAC…</text></g><g class="relationship" transform="translate(383.8964169296681 130.1783104298437) rotate(307.04962567827533)"><path class="outline" fill="#A5ABB6" stroke="none" d="M 6.953439040707552 24.018736134675446 L 17.306200844808384 62.65576918623819 A 17.916697508022974 17.916697508022974 0 1 1 -17.306200844808384 62.65576918623819 L -8.765172356425198 30.780216918698923 L -4.901469051268926 31.815493099109005 L -6.4704761275630185 24.148145657226706 L -11.662949835292403 30.00375978339136 L -7.79924653013613 31.039035963801442 L -16.340275018519314 62.91458823134071 A 16.916697508022974 16.916697508022974 0 1 0 16.340275018519314 62.91458823134071 L 5.987513214418485 24.277555179777966 Z"/><text text-anchor="middle" pointer-events="none" font-size="8px" fill="#000000" x="0" y="94.20964923467838" font-family="sans-serif">INTERAC…</text></g><g class="relationship" transform="translate(-7.494437695968486 109.00583826752339) rotate(515.1108289556294)"><path class="outline" fill="#A5ABB6" stroke="none" d="M 25 0.5 L 46.32662684259451 0.5 L 46.32662684259451 -0.5 L 25 -0.5 Z M 72.33443934259451 0.5 L 93.66106618518901 0.5 L 93.66106618518901 3.5 L 100.66106618518901 0 L 93.66106618518901 -3.5 L 93.66106618518901 -0.5 L 72.33443934259451 -0.5 Z"/><text text-anchor="middle" pointer-events="none" font-size="8px" fill="#000000" x="59.33053309259451" y="3" transform="rotate(180 59.33053309259451 0)" font-family="sans-serif">IS_IN</text></g><g class="relationship" transform="translate(-7.494437695968486 109.00583826752339) rotate(200.96794253796133)"><path class="outline" fill="#A5ABB6" stroke="none" d="M 25 0.5 L 48.50465731488278 0.5 L 48.50465731488278 -0.5 L 25 -0.5 Z M 74.51246981488278 0.5 L 98.01712712976556 0.5 L 98.01712712976556 3.5 L 105.01712712976556 0 L 98.01712712976556 -3.5 L 98.01712712976556 -0.5 L 74.51246981488278 -0.5 Z"/><text text-anchor="middle" pointer-events="none" font-size="8px" fill="#000000" x="61.50856356488278" y="3" transform="rotate(180 61.50856356488278 0)" font-family="sans-serif">IS_IN</text></g><g class="relationship" transform="translate(-121.48455319806632 161.89210418427012) rotate(390.421883175501)"><path class="outline" fill="#A5ABB6" stroke="none" d="M 6.953439040707552 24.018736134675446 L 17.306200844808384 62.65576918623819 A 17.916697508022974 17.916697508022974 0 1 1 -17.306200844808384 62.65576918623819 L -8.765172356425198 30.780216918698923 L -4.901469051268926 31.815493099109005 L -6.4704761275630185 24.148145657226706 L -11.662949835292403 30.00375978339136 L -7.79924653013613 31.039035963801442 L -16.340275018519314 62.91458823134071 A 16.916697508022974 16.916697508022974 0 1 0 16.340275018519314 62.91458823134071 L 5.987513214418485 24.277555179777966 Z"/><text text-anchor="middle" pointer-events="none" font-size="8px" fill="#000000" x="0" y="94.20964923467838" font-family="sans-serif">IS_IN</text></g><g class="relationship" transform="translate(-121.48455319806632 161.89210418427012) rotate(265.7329373953727)"><path class="outline" fill="#A5ABB6" stroke="none" d="M 25 0.5 L 33.3404166310409 0.5 L 33.3404166310409 -0.5 L 25 -0.5 Z M 59.3482291310409 0.5 L 67.6886457620818 0.5 L 67.6886457620818 3.5 L 74.6886457620818 0 L 67.6886457620818 -3.5 L 67.6886457620818 -0.5 L 59.3482291310409 -0.5 Z"/><text text-anchor="middle" pointer-events="none" font-size="8px" fill="#000000" x="46.3443228810409" y="3" transform="rotate(180 46.3443228810409 0)" font-family="sans-serif">IS_IN</text></g><g class="relationship" transform="translate(383.8964169296681 130.1783104298437) rotate(330.65041282417)"><path class="outline" fill="#A5ABB6" stroke="none" d="M 6.953439040707552 24.018736134675446 L 17.306200844808384 62.65576918623819 A 17.916697508022974 17.916697508022974 0 1 1 -17.306200844808384 62.65576918623819 L -8.765172356425198 30.780216918698923 L -4.901469051268926 31.815493099109005 L -6.4704761275630185 24.148145657226706 L -11.662949835292403 30.00375978339136 L -7.79924653013613 31.039035963801442 L -16.340275018519314 62.91458823134071 A 16.916697508022974 16.916697508022974 0 1 0 16.340275018519314 62.91458823134071 L 5.987513214418485 24.277555179777966 Z"/><text text-anchor="middle" pointer-events="none" font-size="8px" fill="#000000" x="0" y="94.20964923467838" font-family="sans-serif">INTERAC…</text></g><g class="relationship" transform="translate(383.8964169296681 130.1783104298437) rotate(491.4527742618541)"><path class="outline" fill="#A5ABB6" stroke="none" d="M 25 0.5 L 30.945543951205565 0.5 L 30.945543951205565 -0.5 L 25 -0.5 Z M 129.25804395120556 0.5 L 135.20358790241113 0.5 L 135.20358790241113 3.5 L 142.20358790241113 0 L 135.20358790241113 -3.5 L 135.20358790241113 -0.5 L 129.25804395120556 -0.5 Z"/><text text-anchor="middle" pointer-events="none" font-size="8px" fill="#000000" x="80.10179395120556" y="3" transform="rotate(180 80.10179395120556 0)" font-family="sans-serif">MEMBER_OF_CULTURE</text></g><g class="relationship" transform="translate(383.8964169296681 130.1783104298437) rotate(183.09642408877164)"><path class="outline" fill="#A5ABB6" stroke="none" d="M 24.018736134675446,-6.953439040707552 L 24.277555179777966,-5.987513214418485 A 661.4467653430362 661.4467653430362 0 0 1 155.51353845171232,-27.317667875989855 L 155.4531268826882,-28.315841429199963 A 662.4467653430362 662.4467653430362 0 0 0 24.018736134675446,-6.953439040707552 Z M 229.48141117457774,-28.65221273454756 L 229.430072957559,-27.653531410263668 A 661.4467653430362 661.4467653430362 0 0 1 360.8544740890591,-7.516858634838989 L 360.1043824382309,-4.612144790867812 L 367.7571550001299,-6.2507637569017005 L 361.8545962901634,-11.389810426800558 L 361.1045046393352,-8.485096582829382 A 662.4467653430362 662.4467653430362 0 0 0 229.48141117457774,-28.65221273454756"/><text text-anchor="middle" pointer-events="none" font-size="8px" fill="#000000" x="192.46483851654776" y="-26.01893192291618" transform="rotate(180 192.46483851654776 -29.01893192291618)" font-family="sans-serif">DEFENDER_KING</text></g><g class="relationship" transform="translate(383.8964169296681 130.1783104298437) rotate(183.7138322392472)"><path class="outline" fill="#A5ABB6" stroke="none" d="M 25 0.5 L 64.94125913095017 0.5 L 64.94125913095017 -0.5 L 25 -0.5 Z M 125.03891538095017 0.5 L 164.98017451190034 0.5 L 164.98017451190034 3.5 L 171.98017451190034 0 L 164.98017451190034 -3.5 L 164.98017451190034 -0.5 L 125.03891538095017 -0.5 Z"/><text text-anchor="middle" pointer-events="none" font-size="8px" fill="#000000" x="94.99008725595017" y="3" transform="rotate(180 94.99008725595017 0)" font-family="sans-serif">BELONGS_TO</text></g><g class="relationship" transform="translate(383.8964169296681 130.1783104298437) rotate(354.2511999700647)"><path class="outline" fill="#A5ABB6" stroke="none" d="M 6.953439040707552 24.018736134675446 L 17.306200844808384 62.65576918623819 A 17.916697508022974 17.916697508022974 0 1 1 -17.306200844808384 62.65576918623819 L -8.765172356425198 30.780216918698923 L -4.901469051268926 31.815493099109005 L -6.4704761275630185 24.148145657226706 L -11.662949835292403 30.00375978339136 L -7.79924653013613 31.039035963801442 L -16.340275018519314 62.91458823134071 A 16.916697508022974 16.916697508022974 0 1 0 16.340275018519314 62.91458823134071 L 5.987513214418485 24.277555179777966 Z"/><text text-anchor="middle" pointer-events="none" font-size="8px" fill="#000000" x="0" y="94.20964923467838" font-family="sans-serif">INTERACTS</text></g><g class="relationship" transform="translate(187.32989882954473 117.41926999834574) rotate(182.47276499901682)"><path class="outline" fill="#A5ABB6" stroke="none" d="M 24.018736134675446,-6.953439040707552 L 24.277555179777966,-5.987513214418485 A 278.968488437974 278.968488437974 0 0 1 70.30996113396813,-14.262923683840029 L 70.2161514281352,-15.258513829980302 A 279.968488437974 279.968488437974 0 0 0 24.018736134675446,-6.953439040707552 Z M 117.73416402020844,-15.685193101055233 L 117.6582474369965,-14.688078928859568 A 278.968488437974 278.968488437974 0 0 1 163.83183405337604,-7.240615243250209 L 163.1075380428175,-4.329362027006557 L 170.745474226371,-6.035800087987614 L 164.79756206745407,-11.122286198241747 L 164.07326605689553,-8.211032981998095 A 279.968488437974 279.968488437974 0 0 0 117.73416402020844,-15.685193101055233"/><text text-anchor="middle" pointer-events="none" font-size="8px" fill="#000000" x="93.97057814120039" y="-12.981868120681384" transform="rotate(180 93.97057814120039 -15.981868120681384)" font-family="sans-serif">ATTACKER</text></g><g class="relationship" transform="translate(383.8964169296681 130.1783104298437) rotate(279.04568994880185)"><path class="outline" fill="#A5ABB6" stroke="none" d="M 24.018736134675446,6.953439040707552 L 24.277555179777966,5.987513214418485 A 142.42930507460972 142.42930507460972 0 0 0 28.57877867641173,7.068538024296032 L 28.3501586377172,8.042053754989354 A 143.42930507460972 143.42930507460972 0 0 1 24.018736134675446,6.953439040707552 Z M 90.09374399230708,8.888066531877683 L 89.89188306811559,7.908652335899006 A 142.42930507460972 142.42930507460972 0 0 0 94.221110713966,6.9458822709462975 L 93.52434106850224,4.027918586943308 L 101.14582091755027,5.806413712198017 L 95.15013690791768,10.836500516283618 L 94.45336726245392,7.918536832280628 A 143.42930507460972 143.42930507460972 0 0 1 90.09374399230708,8.888066531877683"/><text text-anchor="middle" pointer-events="none" font-size="8px" fill="#000000" x="59.18273336841017" y="14.32725880000308" font-family="sans-serif">APPEARED_IN</text></g><g class="relationship" transform="translate(383.8964169296681 130.1783104298437) rotate(183.09642408877164)"><path class="outline" fill="#A5ABB6" stroke="none" d="M 17.324116139070416,-18.03122292025696 L 18.031222920256962,-17.324116139070412 A 250.93996716310002 250.93996716310002 0 0 1 156.81896268598678,-87.82784903109669 L 156.66492738773195,-88.81591437655294 A 251.93996716310002 251.93996716310002 0 0 0 17.324116139070416,-18.03122292025696 Z M 228.06042108966602,-89.70626011154121 L 227.93107342766305,-88.71466080620948 A 250.93996716310002 250.93996716310002 0 0 1 368.4338288421635,-21.69385223213219 L 366.3660683085328,-19.52029147255836 L 373.85009737010756,-17.231337780256133 L 371.19084288700446,-24.5919332448973 L 369.1230823533738,-22.41837248532347 A 251.93996716310002 251.93996716310002 0 0 0 228.06042108966602,-89.70626011154121"/><text text-anchor="middle" pointer-events="none" font-size="8px" fill="#000000" x="192.3372080652287" y="-88.30318163070967" transform="rotate(180 192.3372080652287 -91.30318163070967)" font-family="sans-serif">ATTACKER_KING</text></g><g class="relationship" transform="translate(383.8964169296681 130.1783104298437) rotate(377.8519871159594)"><path class="outline" fill="#A5ABB6" stroke="none" d="M 6.953439040707552 24.018736134675446 L 17.306200844808384 62.65576918623819 A 17.916697508022974 17.916697508022974 0 1 1 -17.306200844808384 62.65576918623819 L -8.765172356425198 30.780216918698923 L -4.901469051268926 31.815493099109005 L -6.4704761275630185 24.148145657226706 L -11.662949835292403 30.00375978339136 L -7.79924653013613 31.039035963801442 L -16.340275018519314 62.91458823134071 A 16.916697508022974 16.916697508022974 0 1 0 16.340275018519314 62.91458823134071 L 5.987513214418485 24.277555179777966 Z"/><text text-anchor="middle" pointer-events="none" font-size="8px" fill="#000000" x="0" y="94.20964923467838" font-family="sans-serif">SIMILARITY</text></g></g><g class="layer nodes"><g class="node" transform="translate(-72.6664446161036,316.27025861362966)"><circle class="outline" cx="0" cy="0" r="25" fill="#FF756E" stroke="#E06760" stroke-width="2px"/><text text-anchor="middle" pointer-events="none" font-family="sans-serif" dy="1.5625" font-size="25" fill="#FFFFFF"/><text text-anchor="middle" pointer-events="none" x="0" y="5" font-size="10px" fill="#FFFFFF" font-family="sans-serif"> _Bloom…</text></g><g class="node" transform="translate(298.6697287483778,3.371766965059223)"><circle class="outline" cx="0" cy="0" r="25" fill="#FF756E" stroke="#E06760" stroke-width="2px"/><text text-anchor="middle" pointer-events="none" font-family="sans-serif" dy="1.5625" font-size="25" fill="#FFFFFF"/><text text-anchor="middle" pointer-events="none" x="0" y="5" font-size="10px" fill="#FFFFFF" font-family="sans-serif"> Status</text></g><g class="node" transform="translate(-7.494437695968486,109.00583826752339)"><circle class="outline" cx="0" cy="0" r="25" fill="#FF756E" stroke="#E06760" stroke-width="2px"/><text text-anchor="middle" pointer-events="none" font-family="sans-serif" dy="1.5625" font-size="25" fill="#FFFFFF"/><text text-anchor="middle" pointer-events="none" x="0" y="5" font-size="10px" fill="#FFFFFF" font-family="sans-serif"> Battle</text></g><g class="node" transform="translate(403.6218372704607,6.2764636113437575)"><circle class="outline" cx="0" cy="0" r="25" fill="#FF756E" stroke="#E06760" stroke-width="2px"/><text text-anchor="middle" pointer-events="none" font-family="sans-serif" dy="1.5625" font-size="25" fill="#FFFFFF"/><text text-anchor="middle" pointer-events="none" x="0" y="5" font-size="10px" fill="#FFFFFF" font-family="sans-serif"> Book</text></g><g class="node" transform="translate(-128.9019334050519,62.47978822320397)"><circle class="outline" cx="0" cy="0" r="25" fill="#FFC454" stroke="#d7a013" stroke-width="2px"/><text text-anchor="middle" pointer-events="none" font-family="sans-serif" dy="1.5625" font-size="25" fill="#604A0E"/><text text-anchor="middle" pointer-events="none" x="0" y="5" font-size="10px" fill="#604A0E" font-family="sans-serif"> Region</text></g><g class="node" transform="translate(187.32989882954473,117.41926999834574)"><circle class="outline" cx="0" cy="0" r="25" fill="#FF756E" stroke="#E06760" stroke-width="2px"/><text text-anchor="middle" pointer-events="none" font-family="sans-serif" dy="1.5625" font-size="25" fill="#FFFFFF"/><text text-anchor="middle" pointer-events="none" x="0" y="5" font-size="10px" fill="#FFFFFF" font-family="sans-serif"> House</text></g><g class="node" transform="translate(383.8964169296681,130.1783104298437)"><circle class="outline" cx="0" cy="0" r="25" fill="#D9C8AE" stroke="#c0a378" stroke-width="2px"/><text text-anchor="middle" pointer-events="none" font-family="sans-serif" dy="1.5625" font-size="25" fill="#604A0E"/><text text-anchor="middle" pointer-events="none" x="0" y="5" font-size="10px" fill="#604A0E" font-family="sans-serif"> Person</text></g><g class="node" transform="translate(273.20722364983254,255.497671657463)"><circle class="outline" cx="0" cy="0" r="25" fill="#FF756E" stroke="#E06760" stroke-width="2px"/><text text-anchor="middle" pointer-events="none" font-family="sans-serif" dy="1.5625" font-size="25" fill="#FFFFFF"/><text text-anchor="middle" pointer-events="none" x="0" y="5" font-size="10px" fill="#FFFFFF" font-family="sans-serif"> Culture</text></g><g class="node" transform="translate(-121.48455319806632,161.89210418427012)"><circle class="outline" cx="0" cy="0" r="25" fill="#FF756E" stroke="#E06760" stroke-width="2px"/><text text-anchor="middle" pointer-events="none" font-family="sans-serif" dy="1.5625" font-size="25" fill="#FFFFFF"/><text text-anchor="middle" pointer-events="none" x="0" y="5" font-size="10px" fill="#FFFFFF" font-family="sans-serif"> Location</text></g></g></svg>